<?xml version="1.0" encoding="UTF-8"?>
<svg width="600" height="200" viewBox="0 0 600 200" xmlns="http://www.w3.org/2000/svg">
  <!-- Robot head with brain -->
  <g transform="translate(60, 20) scale(0.8)">
    <!-- Robot body base -->
    <path d="M75 180 L125 180 L125 160 L75 160 Z" fill="#0f172a"/>
    
    <!-- Robot head -->
    <rect x="50" y="60" width="100" height="100" rx="30" fill="#0f172a"/>
    
    <!-- Antennas -->
    <line x1="70" y1="60" x2="70" y2="40" stroke="#0f172a" stroke-width="5"/>
    <circle cx="70" cy="35" r="5" fill="#0f172a"/>
    
    <line x1="130" y1="60" x2="130" y2="40" stroke="#0f172a" stroke-width="5"/>
    <circle cx="130" cy="35" r="5" fill="#0f172a"/>
    
    <!-- Brain outline -->
    <path d="M75 80 C75 70, 85 65, 95 70 C105 65, 115 70, 115 80 C125 85, 125 95, 115 100 C125 105, 125 115, 115 120 C115 130, 105 135, 95 130 C85 135, 75 130, 75 120 C65 115, 65 105, 75 100 C65 95, 65 85, 75 80 Z" fill="none" stroke="#4fd1c5" stroke-width="5"/>
    
    <!-- Brain details -->
    <path d="M95 70 L95 130" stroke="#4fd1c5" stroke-width="3"/>
    <path d="M75 100 C80 95, 90 95, 95 100" stroke="#4fd1c5" stroke-width="3"/>
    <path d="M115 100 C110 95, 100 95, 95 100" stroke="#4fd1c5" stroke-width="3"/>
  </g>
  
  <!-- Text with proper spacing -->
  <g>
    <text x="180" y="120" font-family="Arial, sans-serif" font-size="60" font-weight="bold" fill="#0f172a">Informatik</text>
    <text x="470" y="120" font-family="Arial, sans-serif" font-size="60" font-weight="bold" fill="#0f172a">-</text>
    <text x="495" y="120" font-family="Arial, sans-serif" font-size="60" font-weight="bold" fill="#4fd1c5">AI</text>
  </g>
</svg>
